<?xml version="1.0" encoding="utf-8" standalone="yes"?>
<!DOCTYPE svg PUBLIC "-//W3C//DTD SVG 1.1//EN" "http://www.w3.org/Graphics/SVG/1.1/DTD/svg11.dtd">
<svg width="668" height="512" viewBox="0 0 668 512" style="fill:none;stroke:none;fill-rule:evenodd;clip-rule:evenodd;stroke-linecap:round;stroke-linejoin:round;stroke-miterlimit:1.5;" version="1.1" xmlns="http://www.w3.org/2000/svg" xmlns:xlink="http://www.w3.org/1999/xlink"><style class="text-font-style fontImports" data-font-family="Shantell Sans">@import url('https://fonts.googleapis.com/css2?family=Shantell+Sans:wght@300..800&amp;display=block');</style><rect id="" x="0" y="0" width="667.785" height="511.3" style="fill: #ffffff;"></rect><g id="items" style="isolation: isolate"><g id="blend" style="mix-blend-mode: normal"><g id="g-root-tf_1lrs3vvgzaxaf-fill" data-item-order="-336738" transform="translate(-8, -8)"><g id="tf_1lrs3vvgzaxaf-fill" stroke="none" fill="#ffffff"><g><path d="M 10.002487 10L 673.782487 10L 673.782487 517.3L 10.002487 517.3Z"></path></g></g></g><g id="g-root-3.cu_sy_8zp2jgzrt3e-fill" data-item-order="-74579" transform="translate(411.9654235839844, 307.01513671875)"><g id="3.cu_sy_8zp2jgzrt3e-fill" stroke="none" fill="#dce9ff"><g><path d="M 237.2 56.484863L 222.3 33.184863L 202.7 39.784863L 220.3 67.284863ZM 202.7 39.784863L 208.7 116.584863L 228.5 112.984863L 222.3 33.184863ZM 228.5 112.984863L 214 63.084863L 194 66.084863L 208.7 116.584863ZM 194 66.084863L 195.1 127.384863L 215 124.484863L 214 63.084863ZM 215 124.484863L 203.9 83.484863L 183.3 83.784863L 195.1 127.384863ZM 183.3 83.784863L 169.9 139.484863L 190.6 138.884863L 203.9 83.484863ZM 190.6 138.884863L 178 96.984863L 158 99.984863L 169.9 139.484863ZM 158 99.984863L 158.4 151.984863L 178.3 148.984863L 178 96.984863ZM 178.3 148.984863L 165.9 106.484863L 145.3 107.184863L 158.4 151.984863ZM 145.3 107.184863L 136.2 150.284863L 157.1 148.184863L 165.9 106.484863ZM 157.1 148.184863L 137.8 104.284863L 116.9 106.684863L 136.2 150.284863ZM 116.9 106.684863L 107.6 155.784863L 128.2 154.884863L 137.8 104.284863ZM 128.2 154.884863L 115.4 109.784863L 94.7 110.084863L 107.6 155.784863ZM 94.7 110.084863L 85 149.984863L 105.5 149.984863L 115.4 109.784863ZM 105.5 149.984863L 94.3 103.384863L 73.9 104.084863L 85 149.984863ZM 73.9 104.084863L 65.9 150.984863L 86.5 148.784863L 94.3 103.384863ZM 86.5 148.784863L 64.6 94.784863L 44.2 97.784863L 65.9 150.984863ZM 44.2 97.784863L 40.6 135.384863L 60.8 133.684863L 64.6 94.784863ZM 60.8 133.684863L 44.1 73.384863L 23.2 72.784863L 40.6 135.384863ZM 23.2 72.784863L 9.3 113.284863L 29.5 115.884863L 44.1 73.384863ZM 29.5 115.884863L 27.2 81.584863L 7.2 82.984863L 9.3 113.284863ZM 202.6 19.684863L 199.2 14.184863L 177.7 17.284863L 185.6 30.184863ZM 177.7 17.284863L 168.8 50.784863L 189.3 51.484863L 199.2 14.184863ZM 189.3 51.484863L 184.7 27.784863L 163.1 21.284863L 168.8 50.784863ZM 163.1 21.284863L 142.9 41.784863L 162.7 50.184863L 184.7 27.784863ZM 162.7 50.184863L 163 36.784863L 143.2 24.784863L 142.9 41.784863ZM 143.2 24.784863L 120.2 37.384863L 145.3 46.384863L 163 36.784863ZM 145.3 46.384863L 138.6 29.584863L 116.1 26.984863L 120.2 37.384863ZM 116.1 26.984863L 102.8 46.084863L 128.2 44.684863L 138.6 29.584863ZM 128.2 44.684863L 114.9 32.584863L 94.7 28.284863L 74.9 35.284863L 95.5 47.684863L 101.8 44.884863L 102.8 46.084863ZM 95.5 47.684863L 95.2 41.884863L 74.8 33.184863L 74.9 35.284863ZM 74.8 33.184863L 58.8 46.884863L 83.3 52.184863L 95.2 41.884863ZM 83.3 52.184863L 68.4 20.084863L 47.7 23.084863L 58.8 46.884863ZM 47.7 23.084863L 42 60.284863L 62.7 57.684863L 68.4 20.084863ZM 62.7 57.684863L 47.6 21.984863L 27.2 25.284863L 42 60.284863ZM 27.2 25.284863L 22.7 78.684863L 43 76.284863L 47.6 21.984863ZM 43 76.284863L 27.4 28.684863L 8.4 34.884863L 22.7 78.684863Z" fill-rule="nonzero"></path></g></g></g><g id="g-root-2.cu_sy_1uuwq0bgzrqir-fill" data-item-order="-74575" transform="translate(437.3247985839844, 206.34130859375)"><g id="2.cu_sy_1uuwq0bgzrqir-fill" stroke="none" fill="#c8ffe5"><g><path d="M 182.940625 42.658691L 177.440625 31.458691L 157.640625 36.358691L 165.040625 51.458691ZM 157.640625 36.358691L 159.940625 105.658691L 179.740625 101.258691L 177.440625 31.458691ZM 179.740625 101.258691L 140.740625 9.458691L 120.440625 12.758691L 159.940625 105.658691ZM 120.440625 12.758691L 116.340625 62.058691L 136.640625 58.858691L 140.740625 9.458691ZM 136.640625 58.858691L 117.640625 13.258691L 96.740625 15.258691L 116.340625 62.058691ZM 96.740625 15.258691L 89.740625 48.858691L 110.440625 47.358691L 117.640625 13.258691ZM 110.440625 47.358691L 100.640625 20.858691L 79.640625 21.858691L 89.740625 48.858691ZM 79.640625 21.858691L 70.440625 56.258691L 91.640625 54.258691L 100.640625 20.858691ZM 91.640625 54.258691L 70.540625 10.258691L 50.140625 14.158691L 70.440625 56.258691ZM 50.140625 14.158691L 47.140625 59.858691L 67.440625 55.858691L 70.540625 10.258691ZM 67.440625 55.858691L 49.140625 18.958691L 29.140625 23.658691L 47.140625 59.858691ZM 29.140625 23.658691L 29.340625 73.258691L 49.340625 68.958691L 49.140625 18.958691ZM 49.340625 68.958691L 31.740625 29.558691L 12.040625 34.558691L 29.340625 73.258691ZM 12.040625 34.558691L 18.540625 118.858691L 38.340625 115.558691L 31.740625 29.558691ZM 38.340625 115.558691L 26.540625 71.558691L 7.240625 76.758691L 18.540625 118.858691ZM 164.340625 112.758691L 150.640625 81.258691L 129.740625 83.358691L 145.940625 120.758691ZM 129.740625 83.358691L 119.140625 132.358691L 139.840625 131.658691L 150.640625 81.258691ZM 139.840625 131.658691L 127.340625 88.458691L 106.840625 89.358691L 119.140625 132.358691ZM 106.840625 89.358691L 98.140625 132.458691L 118.840625 131.058691L 127.340625 88.458691ZM 118.840625 131.058691L 105.540625 92.458691L 84.840625 93.758691L 98.140625 132.458691ZM 84.840625 93.758691L 75.840625 136.658691L 96.640625 134.958691L 105.540625 92.458691ZM 96.640625 134.958691L 77.540625 85.558691L 56.740625 87.458691L 75.840625 136.658691ZM 56.740625 87.458691L 48.440625 130.558691L 69.340625 128.058691L 77.540625 85.558691ZM 69.340625 128.058691L 42.940625 70.458691L 24.740625 78.858691L 48.440625 130.558691Z" fill-rule="nonzero"></path></g></g></g><g id="g-root-1.cu_sy_1uuwq0bgzrqis-fill" data-item-order="-74571" transform="translate(462.6880798339844, 112)"><g id="1.cu_sy_1uuwq0bgzrqis-fill" stroke="none" fill="#ffe4cb"><g><path d="M 13.977344 25.8L 10.877344 30.5L 25.077344 45.2L 30.577344 37ZM 25.077344 45.2L 65.677344 20L 50.877344 5.7L 10.877344 30.5ZM 50.877344 5.7L 5.977344 83.4L 22.477344 94.7L 65.677344 20ZM 22.477344 94.7L 86.777344 15.6L 69.777344 4.8L 5.977344 83.4ZM 69.777344 4.8L 27.777344 92.5L 43.777344 105.4L 86.777344 15.6ZM 43.777344 105.4L 89.277344 69.8L 73.777344 56.5L 27.777344 92.5ZM 73.777344 56.5L 46.977344 104.5L 63.677344 115.6L 89.277344 69.8ZM 63.677344 115.6L 125.477344 36.5L 108.677344 25.5L 46.977344 104.5ZM 108.677344 25.5L 68.777344 99.9L 84.677344 112.7L 125.477344 36.5ZM 84.677344 112.7L 129.477344 74.5L 110.777344 64.1L 68.777344 99.9ZM 110.777344 64.1L 106.277344 94.1L 125.977344 97.1L 129.477344 74.5ZM 91.077344 11.5L 62.377344 67.5L 80.177344 76.6L 108.877344 20.6Z" fill-rule="nonzero"></path></g></g></g><g id="g-root-tx_thethree_4hblbfgzaya6-fill" data-item-order="0" transform="translate(111.96542358398438, 28)"><g id="tx_thethree_4hblbfgzaya6-fill" stroke="none" fill="#484848"><g><text style="font: 25px &quot;Shantell Sans&quot;, cursive; white-space: pre;" font-size="25px" font-family="'Shantell Sans', cursive"><tspan x="15.27" y="44.5" dominant-baseline="ideographic">Three pillars of professional growth</tspan></text></g></g></g><g id="g-root-tx_autonomy_1hjg7mzgzrs3q-fill" data-item-order="0" transform="translate(207.96542358398438, 112)"><g id="tx_autonomy_1hjg7mzgzrs3q-fill" stroke="none" fill="#484848"><g><text style="font: 20px &quot;Shantell Sans&quot;, cursive; white-space: pre;" font-size="20px" font-family="'Shantell Sans', cursive"><tspan x="17.05" y="35.5" dominant-baseline="ideographic">Autonomy</tspan></text></g></g></g><g id="g-root-medi_1lqj5pngz9hql-fill" data-item-order="0" transform="translate(339.9654235839844, 100)"></g><g id="g-root-tx_abilityt_1lz9prfgzrrbh-fill" data-item-order="0" transform="translate(16.000030517578125, 148.2371826171875)"><g id="tx_abilityt_1lz9prfgzrrbh-fill" stroke="none" fill="#484848"><g><text style="font: 15px &quot;Shantell Sans&quot;, cursive; white-space: pre;" font-size="15px" font-family="'Shantell Sans', cursive"><tspan x="20.24" y="29" dominant-baseline="ideographic">Ability to work independently and take </tspan><tspan x="233.28" y="47" dominant-baseline="ideographic">ownership</tspan></text></g></g></g><g id="g-root-tx_meaning_1d3mpijgzrsw0-fill" data-item-order="0" transform="translate(219.96542358398438, 232)"><g id="tx_meaning_1d3mpijgzrsw0-fill" stroke="none" fill="#484848"><g><text style="font: 20px &quot;Shantell Sans&quot;, cursive; white-space: pre;" font-size="20px" font-family="'Shantell Sans', cursive"><tspan x="19.61" y="35.5" dominant-baseline="ideographic">Meaning</tspan></text></g></g></g><g id="g-root-up_qn65rfgz82z0-fill" data-item-order="0" transform="translate(339.9654235839844, 220)"></g><g id="g-root-tx_understa_1hjg7mzgzrs3r-fill" data-item-order="0" transform="translate(40.000030517578125, 268.23388671875)"><g id="tx_understa_1hjg7mzgzrs3r-fill" stroke="none" fill="#484848"><g><text style="font: 15px &quot;Shantell Sans&quot;, cursive; white-space: pre;" font-size="15px" font-family="'Shantell Sans', cursive"><tspan x="11.74" y="29" dominant-baseline="ideographic">Understanding work's contribution to </tspan><tspan x="195.13" y="47" dominant-baseline="ideographic">larger goals</tspan></text></g></g></g><g id="g-root-tx_mastery_13ymo4rgz6o0a-fill" data-item-order="0" transform="translate(219.96542358398438, 352)"><g id="tx_mastery_13ymo4rgz6o0a-fill" stroke="none" fill="#484848"><g><text style="font: 20px &quot;Shantell Sans&quot;, cursive; white-space: pre;" font-size="20px" font-family="'Shantell Sans', cursive"><tspan x="23.39" y="35.5" dominant-baseline="ideographic">Mastery</tspan></text></g></g></g><g id="g-root-brai_13ymo4rgz6o0b-fill" data-item-order="0" transform="translate(339.9654235839844, 340)"></g><g id="g-root-tx_commitme_1d3mpijgzrsw1-fill" data-item-order="0" transform="translate(16.000030517578125, 388.23388671875)"><g id="tx_commitme_1d3mpijgzrsw1-fill" stroke="none" fill="#484848"><g><text style="font: 15px &quot;Shantell Sans&quot;, cursive; white-space: pre;" font-size="15px" font-family="'Shantell Sans', cursive"><tspan x="22.85" y="29" dominant-baseline="ideographic">Commitment to technical expertise and </tspan><tspan x="255" y="47" dominant-baseline="ideographic">growth</tspan></text></g></g></g><g id="g-root-tf_1lrs3vvgzaxaf-stroke" data-item-order="-336738" transform="translate(-8, -8)"></g><g id="g-root-3.cu_sy_8zp2jgzrt3e-stroke" data-item-order="-74579" transform="translate(411.9654235839844, 307.01513671875)"><g id="3.cu_sy_8zp2jgzrt3e-stroke" fill="none" stroke-linecap="round" stroke-linejoin="round" stroke-miterlimit="4" stroke="#484848" stroke-width="4"><g><path d="M 119.9 154.284863C 151.2 155.784863 179.2 146.084863 199.6 134.484863C 218.6 123.584863 230.1 107.684863 229.8 90.684863C 229.7 79.384863 228.1 67.884863 229.8 56.784863C 229.3 62.584863 227 67.884863 225.9 73.684863C 223.9 83.284863 213.6 89.884863 204.3 97.484863C 195 105.084863 182.1 109.784863 168.2 113.884863C 153.6 118.184863 137.2 119.784863 119.9 120.384863C 69.4 121.984863 25.9 100.984863 14 73.684863C 11.6 68.184863 9.9 62.584863 10 56.784863C 10.7 67.984863 9.4 79.384863 10 90.684863C 10.7 103.284863 17.4 114.184863 27.5 125.084863C 35.8 134.184863 49.7 138.784863 63.6 145.284863C 79.4 152.784863 99.4 152.884863 119.9 154.284863M 225.9 73.684863C 227.6 67.984863 230.5 62.584863 229.8 56.784863C 227.6 38.384863 216.9 20.284863 194.5 9.984863C 189.9 13.884863 184.8 17.584863 179.2 21.784863C 195.4 29.584863 205.6 43.084863 204.5 56.784863C 203.9 62.684863 201.6 67.884863 199.2 73.684863C 190.8 94.184863 156.3 105.984863 119.9 105.684863C 100.1 105.484863 82.4 100.384863 67.5 95.084863C 54.9 90.784863 45 82.784863 40.6 73.684863C 37.8 68.084863 35.1 62.684863 35.4 56.784863C 36 43.084863 45.1 30.884863 60.7 21.784863C 55 17.784863 49.5 14.284863 45.3 9.984863C 23 20.284863 10 38.284863 10 56.784863C 10 62.584863 11.1 68.484863 14 73.684863C 21.7 87.884863 36.2 101.884863 57.6 109.184863C 75.6 115.284863 96.8 120.184863 119.9 120.384863C 147.3 120.484863 173 115.884863 191.5 104.984863C 207.2 95.784863 221.7 86.684863 225.9 73.684863M 199.2 73.684863C 204.1 69.684863 204.9 62.684863 204.5 56.784863C 203.4 43.084863 194.9 30.484863 179.2 21.784863C 163.6 29.984863 142.9 37.784863 119.9 35.884863C 107.6 34.884863 96.1 33.584863 85.4 31.584863C 76 29.884863 68.4 24.484863 60.7 21.784863C 45.5 31.484863 34.4 43.084863 35.4 56.784863C 35.8 62.684863 37.2 68.384863 40.6 73.684863C 47.4 65.284863 57.3 57.684863 70.2 51.084863C 83.7 44.184863 101.4 43.384863 119.9 41.684863C 156.2 38.584863 187.1 55.184863 199.2 73.684863"></path><path d="M 119.9097 154.2853C 180.6112 154.2853 229.8195 125.8022 229.8195 90.6665L 229.8195 56.7365C 229.8195 62.6115 228.4437 68.3006 225.8683 73.7015C 213.042 100.6011 170.4613 120.3553 119.9097 120.3553C 69.3581 120.3553 26.7775 100.6011 13.9511 73.7015C 11.3758 68.3006 10 62.6115 10 56.7365L 10 90.6665C 10 125.8022 59.2083 154.2853 119.9097 154.2853ZM 225.8683 73.7015C 228.4437 68.3006 229.8195 62.6115 229.8195 56.7365C 229.8195 38.2598 216.2116 21.6227 194.4803 10C 190.4208 14.385 185.2407 18.3704 179.1615 21.8279C 194.7732 30.7068 204.4557 43.0673 204.4557 56.7367C 204.4557 62.7011 202.6123 68.4162 199.2373 73.7017C 187.3187 92.3673 156.299 105.6742 119.9097 105.6742C 83.5205 105.6742 52.5008 92.3673 40.5821 73.7017C 37.2072 68.4162 35.3638 62.7011 35.3638 56.7367C 35.3638 43.0673 45.0463 30.7068 60.658 21.8279C 54.5788 18.3704 49.3986 14.385 45.3392 10C 23.6079 21.6227 10 38.2598 10 56.7365C 10 62.6115 11.3758 68.3006 13.9511 73.7015C 26.7775 100.6011 69.3581 120.3553 119.9097 120.3553C 170.4613 120.3553 213.042 100.6011 225.8683 73.7015ZM 199.2373 73.7017C 202.6123 68.4162 204.4557 62.7011 204.4557 56.7367C 204.4557 43.0673 194.7732 30.7068 179.1615 21.8279C 163.9055 30.5045 142.9874 35.8565 119.9097 35.8565C 96.8321 35.8565 75.914 30.5045 60.658 21.8279C 45.0463 30.7068 35.3638 43.0673 35.3638 56.7367C 35.3638 62.7011 37.2072 68.4162 40.5821 73.7017C 52.5008 55.0361 83.5205 41.7292 119.9097 41.7292C 156.299 41.7292 187.3187 55.0361 199.2373 73.7017Z"></path></g></g></g><g id="g-root-2.cu_sy_1uuwq0bgzrqir-stroke" data-item-order="-74575" transform="translate(437.3247985839844, 206.34130859375)"><g id="2.cu_sy_1uuwq0bgzrqir-stroke" fill="none" stroke-linecap="round" stroke-linejoin="round" stroke-miterlimit="4" stroke="#484848" stroke-width="4"><g><path d="M 94.540625 136.558691C 117.040625 136.658691 137.840625 132.058691 152.640625 123.158691C 168.540625 113.558691 179.540625 101.558691 179.140625 87.558691C 178.740625 76.258691 177.840625 64.958691 179.140625 53.658691C 179.440625 59.558691 178.240625 66.058691 173.840625 70.658691C 166.440625 78.458691 157.840625 87.758691 144.340625 93.158691C 130.340625 98.858691 113.140625 102.458691 94.540625 102.558691C 58.140625 102.958691 25.540625 90.258691 15.240625 70.658691C 12.340625 65.058691 10.240625 59.658691 10.040625 53.658691C 9.240625 64.958691 8.640625 76.358691 10.040625 87.558691C 13.340625 114.458691 47.840625 135.558691 94.540625 136.558691M 173.840625 70.658691C 176.740625 65.058691 179.540625 59.558691 179.140625 53.658691C 177.640625 34.658691 159.840625 19.358691 132.740625 9.958691C 122.640625 15.358691 109.140625 17.558691 94.540625 18.058691C 79.940625 18.558691 66.340625 15.658691 56.340625 9.958691C 43.140625 15.658691 31.040625 20.258691 22.740625 27.758691C 14.640625 35.158691 11.140625 44.258691 10.040625 53.658691C 9.240625 59.558691 11.940625 65.258691 15.240625 70.658691C 20.440625 79.258691 30.340625 85.758691 42.040625 92.058691C 56.040625 99.458691 74.740625 103.258691 94.540625 102.558691C 111.140625 102.058691 126.240625 98.358691 139.740625 95.058691C 155.840625 91.058691 166.640625 80.258691 173.840625 70.658691M 35.340625 53.658691C 35.340625 34.758691 61.840625 19.658691 94.540625 19.358691C 127.240625 19.158691 154.340625 34.758691 153.740625 53.658691C 153.540625 59.858691 151.340625 66.058691 145.940625 70.658691C 134.940625 80.058691 116.540625 87.258691 94.540625 87.958691C 72.540625 88.558691 52.440625 81.758691 43.140625 70.658691C 38.640625 65.258691 34.240625 59.758691 35.340625 53.658691M 94.540625 19.358691C 77.140625 20.558691 62.240625 25.158691 50.640625 30.658691C 40.440625 35.558691 33.440625 45.058691 35.340625 53.658691C 36.640625 59.658691 38.540625 65.358691 43.140625 70.658691C 52.040625 59.258691 72.540625 52.058691 94.540625 53.358691C 116.540625 54.558691 135.840625 60.258691 145.940625 70.658691C 150.640625 65.458691 152.740625 59.758691 153.740625 53.658691C 155.240625 43.958691 147.240625 33.258691 135.040625 28.658691C 123.740625 24.458691 110.240625 19.158691 94.540625 19.358691"></path><path d="M 94.546 136.5303C 141.2394 136.5303 179.0919 114.6202 179.0919 87.5928L 179.0919 53.6628C 179.0919 59.6272 177.2485 65.3423 173.8736 70.6278C 161.9549 89.2934 130.9352 102.6003 94.546 102.6003C 58.1567 102.6003 27.137 89.2934 15.2183 70.6278C 11.8434 65.3423 10 59.6272 10 53.6628L 10 87.5928C 10 114.6202 47.8525 136.5303 94.546 136.5303ZM 173.8736 70.6278C 177.2485 65.3423 179.0919 59.6272 179.0919 53.6628C 179.0919 34.5972 160.256 18.078 132.768 10C 122.4563 15.0539 109.116 18.1015 94.546 18.1015C 79.9759 18.1015 66.6356 15.0539 56.3239 10C 28.8359 18.078 10 34.5972 10 53.6628C 10 59.6272 11.8434 65.3423 15.2183 70.6278C 27.137 89.2934 58.1567 102.6003 94.546 102.6003C 130.9352 102.6003 161.9549 89.2934 173.8736 70.6278ZM 35.3638 53.663C 35.3638 34.7438 61.8605 19.4067 94.546 19.4067C 127.2314 19.4067 153.7281 34.7438 153.7281 53.663C 153.7281 59.8353 150.9079 65.6264 145.9726 70.628C 135.7804 80.9571 116.5678 87.9193 94.546 87.9193C 72.5241 87.9193 53.3115 80.9571 43.1193 70.628C 38.184 65.6264 35.3638 59.8353 35.3638 53.663ZM 94.546 19.4067C 61.8605 19.4067 35.3638 34.7438 35.3638 53.663C 35.3638 59.8353 38.184 65.6264 43.1193 70.628C 53.3115 60.2989 72.5241 53.3368 94.546 53.3368C 116.5678 53.3368 135.7804 60.2989 145.9726 70.628C 150.9079 65.6264 153.7281 59.8353 153.7281 53.663C 153.7281 34.7438 127.2314 19.4067 94.546 19.4067Z"></path></g></g></g><g id="g-root-1.cu_sy_1uuwq0bgzrqis-stroke" data-item-order="-74571" transform="translate(462.6880798339844, 112)"><g id="1.cu_sy_1uuwq0bgzrqis-stroke" fill="none" stroke-linecap="round" stroke-linejoin="round" stroke-miterlimit="4" stroke="#484848" stroke-width="4"><g><path d="M 69.177344 112.4C 101.777344 110.5 128.877344 97.1 128.377344 78.2C 128.077344 66.9 128.077344 55.6 128.377344 44.3C 129.977344 50.2 126.077344 56.8 120.577344 61.2C 115.077344 65.6 108.377344 69.9 100.077344 73.5C 91.277344 77.2 80.477344 79.6 69.177344 78.5C 47.277344 76.3 28.477344 71 17.777344 61.2C 12.577344 56.5 11.777344 50.2 9.977344 44.3C 9.277344 55.5 10.777344 66.9 9.977344 78.2C 8.677344 97.1 36.477344 112.5 69.177344 112.4M 120.577344 61.2C 125.577344 56.2 128.977344 50.4 128.377344 44.3C 126.377344 25.4 101.877344 10 69.177344 10C 51.877344 10 35.877344 13.5 25.577344 21.1C 16.377344 27.9 10.577344 35.3 9.977344 44.3C 9.577344 50.4 12.977344 56.1 17.777344 61.2C 27.677344 71.8 47.277344 80.4 69.177344 78.5C 91.077344 76.6 110.777344 71.9 120.577344 61.2M 69.177344 63.8C 63.177344 65.2 57.377344 62.5 52.277344 61.2C 57.377344 60.2 63.077344 58.9 69.177344 58.6C 75.277344 58.4 81.577344 58.6 86.077344 61.2C 81.577344 64 75.277344 64.3 69.177344 63.8M 52.277344 61.2C 41.877344 58.9 34.377344 51.4 35.377344 44.3C 36.877344 33.5 50.477344 24 69.177344 24.7C 87.877344 25.4 101.177344 33.6 102.977344 44.3C 104.177344 51.4 96.077344 57.7 86.077344 61.2"></path><path d="M 69.1822 112.4425C 101.8676 112.4425 128.3643 97.1055 128.3643 78.1863L 128.3643 44.2563C 128.3643 50.4286 125.5441 56.2197 120.6088 61.2213C 110.4166 71.5504 91.204 78.5125 69.1822 78.5125C 47.1603 78.5125 27.9477 71.5504 17.7555 61.2213C 12.8202 56.2197 10 50.4286 10 44.2563L 10 78.1863C 10 97.1055 36.4968 112.4425 69.1822 112.4425ZM 120.6088 61.2213C 125.5441 56.2197 128.3643 50.4286 128.3643 44.2563C 128.3643 25.3371 101.8676 10 69.1822 10C 36.4968 10 10 25.3371 10 44.2563C 10 50.4286 12.8202 56.2197 17.7555 61.2213C 27.9477 71.5504 47.1603 78.5125 69.1822 78.5125C 91.204 78.5125 110.4166 71.5504 120.6088 61.2213ZM 69.1822 63.8315C 63.0332 63.8315 57.2675 62.8816 52.2992 61.2215C 57.2675 59.5614 63.0332 58.6115 69.1822 58.6115C 75.3311 58.6115 81.0968 59.5614 86.0651 61.2215C 81.0968 62.8816 75.3311 63.8315 69.1822 63.8315ZM 52.2992 61.2215C 42.1764 57.839 35.3638 51.5083 35.3638 44.2565C 35.3638 33.4455 50.5048 24.6815 69.1822 24.6815C 87.8595 24.6815 103.0005 33.4455 103.0005 44.2565C 103.0005 51.5083 96.1879 57.839 86.0651 61.2215"></path></g></g></g><g id="g-root-tx_thethree_4hblbfgzaya6-stroke" data-item-order="0" transform="translate(111.96542358398438, 28)"></g><g id="g-root-tx_autonomy_1hjg7mzgzrs3q-stroke" data-item-order="0" transform="translate(207.96542358398438, 112)"></g><g id="g-root-medi_1lqj5pngz9hql-stroke" data-item-order="0" transform="translate(339.9654235839844, 100)"><g id="medi_1lqj5pngz9hql-stroke" fill="none" stroke-linecap="round" stroke-linejoin="round" stroke-miterlimit="4" stroke="#484848" stroke-width="2"><g><path d="M 27.998203 16.999302C 27.598244 20.198982 30.597944 22.998703 33.997604 22.998703C 37.397263 22.998703 39.797024 20.398962 39.997005 16.999302C 40.196987 13.599641 37.197285 11.39986 33.997604 10.9999C 30.797922 10.59994 27.798222 13.799621 27.998203 16.999302M 22.598742 55.595448C 23.198683 56.39537 23.998602 56.595345 24.998503 56.995308C 25.598442 57.19529 24.798523 56.595345 33.997604 54.595547M 35.397465 48.796127C 37.997204 49.996006 41.396866 49.396069 43.796623 50.995907C 44.996506 51.995808 46.196388 52.995708 45.996407 54.395569C 45.596443 55.795425 44.596542 56.795326 42.996704 56.995308C 42.396767 56.995308 44.796524 53.795628 20.198982 50.795925C 18.599142 50.795925 17.599241 48.796127 18.199181 47.196285C 18.599142 45.596443 20.398962 44.196587 21.798822 45.196487C 23.198683 45.996407 25.598442 45.596443 26.998302 46.596344C 26.398363 43.796623 26.398363 40.796925 26.998302 37.997204C 24.798523 39.397064 22.598742 41.796825 19.999002 40.996906C 15.999401 41.196884 12.799721 38.397163 10.9999 34.797523C 10.399961 33.197685 11.59984 31.197884 13.19968 31.197884C 14.79952 30.997904 16.799322 31.597843 16.999302 33.197685C 16.999302 33.197685 17.399261 35.597443 19.999002 34.997505C 21.598843 34.597546 25.198483 32.397762 26.198383 28.798122C 26.598343 27.598244 27.798222 27.198284 28.998102 26.998302C 32.197784 26.198383 35.797424 27.798222 38.997105 26.998302C 40.196987 26.798323 41.196884 27.798222 41.796825 28.798122C 43.596645 31.997803 46.196388 34.797523 47.996204 34.997505C 50.595943 35.197483 50.995907 33.197685 51.195889 33.197685C 50.995907 31.597843 53.195686 30.997904 54.795528 31.197884C 56.39537 31.197884 57.795227 33.397663 56.995308 34.797523C 54.995506 38.197186 51.995808 40.996906 47.996204 40.996906C 45.396469 41.196884 41.996803 40.396965 40.996906 37.997204C 41.796825 40.796925 40.396965 43.796623 40.996906 46.596344C 42.596745 45.596443 44.396568 45.196487 46.196388 44.996506C 47.596245 44.996506 48.996105 45.396469 49.596046 46.596344C 50.395969 47.796227 50.195988 49.596046 48.996105 50.395969M 26.998302 34.997505C 27.198284 35.997406 27.398262 36.997303 26.998302 37.997204M 40.996906 34.997505C 40.996906 35.997406 41.396866 36.997303 40.996906 37.997204"></path><path d="M 27.998203 16.999302C 27.998203 20.312679 30.684227 22.998703 33.997604 22.998703C 37.310982 22.998703 39.997005 20.312679 39.997005 16.999302C 39.997005 13.685924 37.310982 10.999901 33.997604 10.999901C 30.684227 10.999901 27.998203 13.685924 27.998203 16.999302M 22.518751 55.655441C 23.063381 56.495045 23.997736 56.999901 24.998503 56.995308C 25.538448 56.995308 24.998503 57.115295 33.997604 54.65554M 35.357468 48.796127L 43.776627 51.095894C 45.235615 51.482285 46.180317 52.892517 45.982506 54.388783C 45.784695 55.885048 44.505978 57.001335 42.996704 56.995308C 42.416763 56.995308 44.016605 57.375271 20.218981 50.89592C 18.617514 50.465179 17.668453 48.817749 18.099192 47.216286C 18.52993 45.614819 20.177359 44.66576 21.778824 45.096497L 26.998302 46.516354L 26.998302 37.997204C 25.246414 40.014473 22.66798 41.119514 19.999001 40.996902C 15.969207 41.168907 12.323404 38.620941 11.09989 34.777523C 10.669151 33.17606 11.618213 31.528633 13.219679 31.097895C 14.821144 30.667154 16.468573 31.616215 16.899311 33.217682C 16.899311 33.217682 17.399261 34.997505 19.999002 34.997505C 21.738827 34.997505 24.698532 32.177788 26.258377 28.758127C 26.746052 27.683762 27.818239 26.995056 28.998102 26.998302L 38.997105 26.998302C 40.176971 26.995056 41.249157 27.683762 41.736832 28.758127C 43.296673 32.177788 46.256378 34.997505 47.996204 34.997505C 50.595943 34.997505 51.095894 33.237679 51.095894 33.217682C 51.526638 31.616215 53.174065 30.667154 54.775532 31.097895C 56.376995 31.528633 57.326057 33.17606 56.895321 34.777527C 55.671803 38.620941 52.026001 41.168907 47.996204 40.996906C 45.327225 41.119514 42.748791 40.014473 40.996902 37.997204L 40.996906 46.516354L 46.216385 45.096493C 47.576141 44.732101 49.006374 45.362286 49.655083 46.611652C 50.303787 47.861015 49.996437 49.393406 48.916115 50.295979M 26.998302 34.997505L 26.998302 37.997204M 40.996906 34.997505L 40.996906 37.997204"></path></g></g></g><g id="g-root-tx_abilityt_1lz9prfgzrrbh-stroke" data-item-order="0" transform="translate(16.000030517578125, 148.2371826171875)"></g><g id="g-root-tx_meaning_1d3mpijgzrsw0-stroke" data-item-order="0" transform="translate(219.96542358398438, 232)"></g><g id="g-root-up_qn65rfgz82z0-stroke" data-item-order="0" transform="translate(339.9654235839844, 220)"><g id="up_qn65rfgz82z0-stroke" fill="none" stroke-linecap="round" stroke-linejoin="round" stroke-miterlimit="4" stroke="#484848" stroke-width="2"><g><path d="M 45.996407 30.997904C 45.796425 29.998003 45.796425 28.998102 45.996407 27.998203C 46.396366 26.398363 44.596542 24.998503 42.996704 24.998503C 41.396866 24.998503 40.396965 26.398363 39.997005 27.998203M 33.997604 34.997505C 33.197685 32.797722 34.597546 30.197985 33.997604 27.998203C 33.597645 26.398363 32.597744 25.198483 30.997904 24.998503C 29.398064 24.798523 28.398163 26.398363 27.998203 27.998203C 27.798222 28.598143 27.998203 29.398064 27.998203 29.998003M 33.997604 27.998203C 34.197586 27.398262 34.197586 26.598343 33.997604 25.998402C 33.597645 24.398561 35.397465 22.998703 36.997303 22.998703C 38.597145 22.998703 39.797024 24.398561 39.997005 25.998402C 39.997005 26.598343 40.196987 27.398262 39.997005 27.998203M 27.998203 36.997303C 27.398262 34.797523 28.598143 32.197784 27.998203 29.998003C 27.598244 28.398163 26.598343 26.398363 24.998503 26.998302C 23.398663 27.598244 21.398861 28.398163 21.998802 29.998003C 23.398663 33.397663 21.198881 37.397263 21.998802 40.996906C 23.198683 46.396366 26.598343 52.195789 31.997803 50.995907C 34.197586 50.595943 36.597343 51.395866 38.597145 50.995907C 49.796024 48.796127 52.395767 40.996906 51.995808 36.997303C 51.595844 33.797623 49.196087 30.597944 45.996407 30.997904C 44.596542 31.197884 43.396667 30.797922 41.996803 30.997904C 39.797024 31.197884 37.597244 32.797722 37.997204 34.997505C 38.397163 37.197285 39.797024 39.197086 41.996803 38.997105C 42.596745 38.997105 43.396667 39.197086 43.996605 38.997105C 43.996605 38.997105 37.797222 40.996906 37.997204 44.996506M 21.998802 56.995308C 21.998802 55.595448 21.998802 54.395569 21.998802 52.995708C 21.998802 51.795826 22.998703 51.395866 23.998602 50.995907C 30.797922 48.396168 38.797123 49.796024 45.996407 50.995907C 46.996307 51.195889 47.996204 51.995808 47.996204 52.995708C 47.996204 54.395569 47.796227 55.595448 47.996204 56.995308M 26.998302 10.9999C 27.598244 12.799721 27.798222 14.599541 28.998102 15.999401M 15.999401 18.999102C 17.399261 20.398962 19.399061 20.798922 20.998901 21.998802M 40.996906 10.9999C 40.396965 12.799721 39.997005 14.599541 38.997105 15.999401M 51.995808 18.999102C 50.795925 20.598942 48.596146 20.798922 46.996307 21.998802M 27.998203 36.997303C 27.998203 38.597145 26.598343 40.196987 24.998503 39.997005C 23.398663 39.797024 22.398762 38.597145 21.998802 36.997303M 33.997604 34.997505C 34.197586 36.597343 32.597744 37.797222 30.997904 37.997204C 29.398064 38.197186 28.598143 36.597343 27.998203 34.997505"></path><path d="M 45.996407 30.997904L 45.996407 27.998203C 45.996407 26.341515 44.653397 24.998503 42.996704 24.998503C 41.340019 24.998503 39.997005 26.341515 39.997005 27.998203M 33.997604 34.997505L 33.997604 27.998203C 33.997604 26.341515 32.654594 24.998503 30.997904 24.998503C 29.341217 24.998503 27.998203 26.341515 27.998203 27.998203L 27.998203 29.998003M 33.997604 27.998203L 33.997604 25.998402L 33.997604 25.998402C 33.997604 24.341715 35.340618 22.998703 36.997303 22.998703C 38.653992 22.998703 39.997005 24.341715 39.997005 25.998402L 39.997005 25.998402L 39.997005 27.998203M 27.998203 36.997303L 27.998203 29.998003C 27.998203 28.341316 26.655191 26.998302 24.998503 26.998302C 23.341814 26.998302 21.998802 28.341316 21.998802 29.998003L 21.998802 40.996906C 21.998802 46.519199 26.475508 50.995907 31.997803 50.995907L 38.667137 50.995907C 49.996006 50.995907 51.995808 40.996906 51.995808 36.997303C 51.995808 33.683929 49.309784 30.997904 45.996407 30.997904L 41.996803 30.997904C 39.787888 30.997904 37.997204 32.788586 37.997204 34.997505C 37.997204 37.206421 39.787888 38.997105 41.996803 38.997105L 43.996605 38.997105C 43.996605 38.997105 37.997204 40.996906 37.997204 44.996506M 21.998802 56.995308L 21.998802 52.995708C 21.998802 51.891251 22.894144 50.995907 23.998602 50.995907L 45.996407 50.995907C 47.100864 50.995907 47.996204 51.891251 47.996204 52.995708L 47.996204 56.995308M 26.998302 10.9999L 28.998102 15.999401M 15.999401 18.999102L 20.998901 21.998802M 40.996906 10.9999L 38.997105 15.999401M 51.995808 18.999102L 46.996307 21.998802M 27.998203 36.997303C 27.998203 38.653992 26.655191 39.997005 24.998503 39.997005C 23.341814 39.997005 21.998802 38.653992 21.998802 36.997303M 33.997604 34.997505C 33.997604 36.654194 32.654594 37.997204 30.997904 37.997204C 29.341217 37.997204 27.998203 36.654194 27.998203 34.997505"></path></g></g></g><g id="g-root-tx_understa_1hjg7mzgzrs3r-stroke" data-item-order="0" transform="translate(40.000030517578125, 268.23388671875)"></g><g id="g-root-tx_mastery_13ymo4rgz6o0a-stroke" data-item-order="0" transform="translate(219.96542358398438, 352)"></g><g id="g-root-brai_13ymo4rgz6o0b-stroke" data-item-order="0" transform="translate(339.9654235839844, 340)"><g id="brai_13ymo4rgz6o0b-stroke" fill="none" stroke-linecap="round" stroke-linejoin="round" stroke-miterlimit="4" stroke="#484848" stroke-width="2"><g><path d="M 38.997105 16.999302C 38.597145 14.599541 37.197285 12.19978 34.597546 11.79982C 32.197784 11.59984 29.398064 12.59974 28.798122 15.199481C 26.798323 14.19958 23.598642 14.999501 22.998703 17.199282C 22.398762 19.399061 21.798822 21.398861 23.198683 23.398663C 21.398861 24.998503 20.798922 26.998302 21.198881 29.398064C 21.798822 31.597843 23.998602 32.997704 26.198383 32.997704C 28.398163 32.797722 30.797922 32.597744 32.997704 32.997704C 36.197384 33.397663 39.397064 30.197985 38.997105 26.798323C 38.797123 30.197985 41.996803 31.597843 44.996506 32.997704C 47.196285 33.797623 49.596046 32.997704 51.795826 32.997704C 53.995605 32.997704 56.39537 31.597843 56.795326 29.398064C 56.995308 26.998302 56.995308 24.198582 54.795528 23.398663C 55.795425 21.398861 56.995308 18.599142 54.995506 17.199282C 53.195686 15.799421 51.195889 13.9996 49.196087 15.199481C 48.796127 12.59974 45.796425 11.79982 43.396667 11.79982C 40.796925 11.79982 39.197086 14.599541 38.997105 16.999302M 38.997105 26.798323C 38.197186 23.398663 37.997204 19.599041 38.997105 15.999401M 44.196587 16.999302C 44.396568 17.399261 44.396568 17.599241 44.196587 17.999201M 10.9999 54.195587C 15.199481 54.595547 19.199081 55.795425 23.398663 56.195389C 25.998402 55.595448 28.798122 56.195389 30.797922 54.595547C 34.797523 51.395866 39.997005 49.996006 43.996605 46.796326C 45.596443 45.596443 45.796425 43.596645 45.196487 41.596844C 44.796524 39.597046 41.796825 39.197086 39.997005 40.396965C 36.597343 42.396767 32.397762 43.396667 29.798023 46.396366M 10.9999 44.196587C 12.39976 42.596745 14.999501 42.596745 16.199381 40.996906C 17.799221 39.197086 20.598942 39.797024 22.798721 39.397064C 24.398561 39.197086 26.198383 39.397064 27.998203 39.597046C 28.998102 39.597046 29.798023 40.396965 30.597944 40.796925C 31.397863 41.196884 31.797823 42.596745 31.597843 43.396667C 30.997904 45.196487 29.998003 47.196285 28.198183 46.796326C 26.198383 46.196388 23.598642 46.196388 21.598843 46.796326M 54.795528 23.398663C 52.795727 22.198782 49.596046 22.598742 48.796127 24.998503M 49.196087 15.199481C 49.796024 15.999401 49.996006 16.999302 49.596046 17.999201M 47.396267 28.998102C 45.596443 28.998102 44.396568 27.798222 44.196587 25.998402M 33.597645 16.999302C 33.797623 17.399261 33.797623 17.599241 33.597645 17.999201M 23.198683 23.398663C 25.398462 22.598742 28.798122 22.598742 29.198084 24.998503M 28.798122 15.199481C 28.398163 15.999401 28.198183 16.999302 28.398163 17.999201M 30.597944 28.998102C 32.197784 28.598143 33.797623 27.798222 33.597645 25.998402"></path><path d="M 38.997105 17.045296C 38.998341 14.495613 37.1805 12.3079 34.673702 11.842226C 32.166904 11.376553 29.684654 12.765459 28.770126 15.145486C 26.58725 14.514656 24.245928 15.355239 22.96277 17.230448C 21.679613 19.105658 21.744087 21.592463 23.12269 23.398663C 21.284855 24.754917 20.527111 27.138903 21.244625 29.307365C 21.962137 31.47583 23.9923 32.93734 26.276375 32.92971L 32.903713 32.92971C 36.265041 32.935238 38.993793 30.213648 38.997105 26.852318C 38.997105 30.212082 41.720734 32.935711 45.080498 32.935711L 51.707836 32.935711C 53.993431 32.942535 56.024071 31.478395 56.739605 29.307676C 57.455135 27.136959 56.693176 24.752296 54.851524 23.398663C 56.255325 21.598263 56.334545 19.096979 55.047482 17.211355C 53.760422 15.325733 51.402206 14.488158 49.214088 15.139486C 48.299561 12.75946 45.817307 11.370553 43.310509 11.836227C 40.803711 12.301901 38.985867 14.489614 38.987106 17.039297ZM 38.987106 26.852318L 38.987106 15.985402M 44.284576 16.963305L 44.284576 18.023199M 10.9999 54.129593L 23.430658 56.129395C 26.018747 56.489189 28.652227 55.957417 30.897913 54.621544L 43.912613 46.884319C 45.733368 45.801434 46.331467 43.447536 45.248478 41.626842L 45.248478 41.626842C 44.163799 39.81163 41.814133 39.217506 39.997005 40.298973L 29.826019 46.342373M 10.9999 44.14859L 16.279373 41.010902C 18.233065 39.849518 20.48698 39.292824 22.756725 39.411064L 28.014202 39.685036C 28.993225 39.689182 29.927826 40.094135 30.600374 40.805603C 31.272923 41.517067 31.62472 42.47295 31.573845 43.450657L 31.573847 43.450657C 31.480844 45.253242 30.060347 46.704601 28.260176 46.836319L 21.546848 46.796326M 54.851521 23.398663C 52.746502 22.206194 50.075123 22.897036 48.812122 24.960505M 49.214085 15.145486C 49.654034 16.037643 49.769302 17.055239 49.540051 18.023197M 47.364269 29.076094C 45.664185 29.076094 44.285683 27.698488 44.284576 25.998402M 33.677635 16.963305L 33.677635 18.023199M 23.110691 23.398663C 25.215105 22.206394 27.885849 22.897303 29.148088 24.960506M 28.748129 15.145486C 28.306686 16.037163 28.190678 17.055059 28.420162 18.023199M 30.597944 29.076094C 32.297573 29.074991 33.67543 27.698032 33.677635 25.998402"></path></g></g></g><g id="g-root-tx_commitme_1d3mpijgzrsw1-stroke" data-item-order="0" transform="translate(16.000030517578125, 388.23388671875)"></g></g></g></svg>